{
  "accessors": [
    {
      "bufferView": 1,
      "componentType": 5126,
      "count": 34485,
      "max": [
        2.5648467540740967,
        2.002326250076294,
        5.528911590576172
      ],
      "min": [
        -2.596952438354492,
        -2.0667645931243896,
        0.8415241241455078
      ],
      "type": "VEC3"
    },
    {
      "bufferView": 1,
      "byteOffset": 413820,
      "componentType": 5126,
      "count": 34485,
      "max": [
        0.9999905228614807,
        0.9999539256095886,
        0.9996564984321594
      ],
      "min": [
        -0.9999913573265076,
        -0.9999915361404419,
        -0.9999797940254211
      ],
      "type": "VEC3"
    },
    {
      "bufferView": 0,
      "componentType": 5125,
      "count": 199146,
      "type": "SCALAR"
    }
  ],
  "asset": {
    "extras": {
      "author": "nessafrye (https://sketchfab.com/nessafrye)",
      "license": "CC-BY-4.0 (http://creativecommons.org/licenses/by/4.0/)",
      "source": "https://sketchfab.com/3d-models/spooky-ghost-072da1663fc74b508d04b66932aee8a9",
      "title": "Spooky Ghost"
    },
    "generator": "Sketchfab-12.66.0",
    "version": "2.0"
  },
  "bufferViews": [
    {
      "buffer": 0,
      "byteLength": 796584,
      "name": "floatBufferViews",
      "target": 34963
    },
    {
      "buffer": 0,
      "byteLength": 827640,
      "byteOffset": 796584,
      "byteStride": 12,
      "name": "floatBufferViews",
      "target": 34962
    }
  ],
  "buffers": [
    {
      "byteLength": 1624224,
      "uri": "scene.bin"
    }
  ],
  "materials": [
    {
      "doubleSided": true,
      "name": "Scene_-_Root",
      "pbrMetallicRoughness": {
        "baseColorFactor": [
          0.7579697625090449,
          0.7579697625090449,
          0.7579697625090449,
          1.0
        ],
        "metallicFactor": 0.0,
        "roughnessFactor": 0.4921875
      }
    }
  ],
  "meshes": [
    {
      "name": "Object_0",
      "primitives": [
        {
          "attributes": {
            "NORMAL": 1,
            "POSITION": 0
          },
          "indices": 2,
          "material": 0,
          "mode": 4
        }
      ]
    }
  ],
  "nodes": [
    {
      "children": [
        1
      ],
      "matrix": [
        1.0,
        0.0,
        0.0,
        0.0,
        0.0,
        2.220446049250313e-16,
        -1.0,
        0.0,
        0.0,
        1.0,
        2.220446049250313e-16,
        0.0,
        0.0,
        0.0,
        0.0,
        1.0
      ],
      "name": "Sketchfab_model"
    },
    {
      "children": [
        2
      ],
      "name": "GOODghost.stl.cleaner.materialmerger.gles"
    },
    {
      "mesh": 0,
      "name": "Object_2"
    }
  ],
  "scene": 0,
  "scenes": [
    {
      "name": "Sketchfab_Scene",
      "nodes": [
        0
      ]
    }
  ]
}
